<svg viewBox="0 0 18 21" fill="none" xmlns="http://www.w3.org/2000/svg">
<path d="M3.68399 20.1001H14.316C16.182 20.1001 17.7 18.5821 17.7 16.7161V6.6001C17.7 6.2701 17.43 6.0001 17.1 6.0001H13.5V5.1001C13.5 2.6191 11.481 0.600098 8.99999 0.600098C6.51899 0.600098 4.49999 2.6191 4.49999 5.1001V6.0001H0.899988C0.569988 6.0001 0.299988 6.2701 0.299988 6.6001V16.7161C0.299988 18.5821 1.81799 20.1001 3.68399 20.1001ZM5.69999 5.1001C5.69999 3.2791 7.17899 1.8001 8.99999 1.8001C10.821 1.8001 12.3 3.2791 12.3 5.1001V6.0001H5.69999V5.1001ZM1.49999 7.2001H4.49999V8.7001C4.49999 9.0301 4.76999 9.3001 5.09999 9.3001C5.42999 9.3001 5.69999 9.0301 5.69999 8.7001V7.2001H12.3V8.7001C12.3 9.0301 12.57 9.3001 12.9 9.3001C13.23 9.3001 13.5 9.0301 13.5 8.7001V7.2001H16.5V16.7161C16.5 17.9191 15.519 18.9001 14.316 18.9001H3.68399C2.48099 18.9001 1.49999 17.9191 1.49999 16.7161V7.2001Z" fill="currentColor"/>
</svg>
