<svg viewBox="0 0 23 23" fill="none" xmlns="http://www.w3.org/2000/svg">
<path fill-rule="evenodd" clip-rule="evenodd" d="M19.01 3.5484C14.6213 -0.596607 7.69339 -0.398747 3.54839 3.98998C-0.596617 8.3787 -0.398756 15.3066 3.98997 19.4516C8.3787 23.5966 15.3066 23.3988 19.4516 19.0101C23.5966 14.6213 23.3988 7.6934 19.01 3.5484ZM14.7894 9.15954L14.945 14.6076C14.9573 15.0383 15.3174 15.3784 15.7481 15.3661C16.1794 15.3543 16.5195 14.9942 16.5066 14.563C16.3738 9.89298 16.3912 10.5208 16.3312 8.40092C16.3164 7.88296 16.0963 7.39241 15.7197 7.03676C15.3431 6.68111 14.8408 6.48931 14.3229 6.5041C12.2593 6.56359 8.19288 6.67973 8.19288 6.67973C7.76216 6.69203 7.42207 7.05212 7.43437 7.48284C7.44667 7.91356 7.80676 8.25366 8.23748 8.24135L13.6535 8.08668L7.17929 14.9415C6.88318 15.2551 6.89731 15.7498 7.21083 16.0459C7.52435 16.3421 8.01912 16.3279 8.31523 16.0144L14.7894 9.15954Z" fill="currentColor"/>
</svg>
