<svg viewBox="0 0 18 18" fill="none" xmlns="http://www.w3.org/2000/svg">
<path d="M12.2068 10.5894L9.69711 8.70714V4.87293C9.69711 4.48741 9.38548 4.17578 8.99996 4.17578C8.61444 4.17578 8.30281 4.48741 8.30281 4.87293V9.05575C8.30281 9.27534 8.40599 9.48241 8.58167 9.61347L11.3702 11.7049C11.4905 11.7955 11.6371 11.8445 11.7878 11.8443C12.0004 11.8443 12.2095 11.7488 12.3462 11.5647C12.5777 11.2573 12.515 10.8202 12.2068 10.5894Z" fill="currentColor"/>
<path d="M9 0C4.0371 0 0 4.0371 0 9C0 13.9629 4.0371 18 9 18C13.9629 18 18 13.9629 18 9C18 4.0371 13.9629 0 9 0ZM9 16.6057C4.80674 16.6057 1.39426 13.1933 1.39426 9C1.39426 4.80674 4.80674 1.39426 9 1.39426C13.194 1.39426 16.6057 4.80674 16.6057 9C16.6057 13.1933 13.1933 16.6057 9 16.6057Z" fill="currentColor"/>
</svg>
