<svg viewBox="0 0 25 25" fill="none" xmlns="http://www.w3.org/2000/svg">
<path d="M12.5 25C19.4018 25 25 19.4018 25 12.5C25 5.5982 19.4018 0 12.5 0C5.5982 0 0 5.5982 0 12.5C0 19.4018 5.5982 25 12.5 25ZM11.6071 5.35715C11.6071 4.86606 12.0089 4.46427 12.5 4.46427C12.9911 4.46427 13.3929 4.86606 13.3929 5.35715V12.0714L17.5223 15.375C17.9063 15.683 17.9688 16.2455 17.6607 16.6295C17.4866 16.8482 17.2277 16.9643 16.9643 16.9643C16.7678 16.9643 16.5714 16.9017 16.4063 16.7678L11.942 13.1964C11.7322 13.0268 11.6072 12.7723 11.6072 12.5V5.35715H11.6071Z" fill="currentColor"/>
</svg>
