<svg viewBox="0 0 30 30" fill="none" xmlns="http://www.w3.org/2000/svg">
<path d="M14.9999 0.000244141C6.72896 0.000244141 0 6.72921 0 15.0002C0 23.2712 6.72896 30.0001 14.9999 30.0001C23.2709 30.0001 29.9999 23.2712 29.9999 15.0002C29.9999 6.72915 23.2709 0.000244141 14.9999 0.000244141ZM14.9999 28.1251C7.76285 28.1251 1.875 22.2373 1.875 15.0002C1.875 7.7631 7.76285 1.87524 14.9999 1.87524C22.237 1.87524 28.1249 7.76304 28.1249 15.0002C28.1249 22.2373 22.237 28.1251 14.9999 28.1251ZM23.3203 15.0002C23.3203 15.518 22.9005 15.9377 22.3828 15.9377H15.9374V22.383C15.9374 22.9008 15.5177 23.3205 14.9999 23.3205C14.4822 23.3205 14.0624 22.9008 14.0624 22.383V15.9377H7.61713C7.09939 15.9377 6.67963 15.518 6.67963 15.0002C6.67963 14.4824 7.09939 14.0627 7.61713 14.0627H14.0624V7.61737C14.0624 7.09958 14.4822 6.67987 14.9999 6.67987C15.5177 6.67987 15.9374 7.09958 15.9374 7.61737V14.0627H22.3828C22.9005 14.0627 23.3203 14.4825 23.3203 15.0002Z" fill="currentColor"/>
</svg>
