<svg viewBox="0 0 30 30" fill="none" xmlns="http://www.w3.org/2000/svg">
<path d="M15.0002 0.000244141C6.72921 0.000244141 0.000244141 6.72921 0.000244141 15.0002C0.000244141 23.2712 6.72921 30.0001 15.0002 30.0001C23.2712 30.0001 30.0001 23.2712 30.0001 15.0002C30.0001 6.72915 23.2712 0.000244141 15.0002 0.000244141ZM15.0002 28.1251C7.7631 28.1251 1.87524 22.2373 1.87524 15.0002C1.87524 7.7631 7.7631 1.87524 15.0002 1.87524C22.2373 1.87524 28.1251 7.76304 28.1251 15.0002C28.1251 22.2373 22.2373 28.1251 15.0002 28.1251ZM23.3205 15.0002C23.3205 15.518 22.9007 15.9377 22.383 15.9377H15.9377H15.6278C15.0002 15.9377 15.5179 15.9377 15.0002 15.9377C14.4825 15.9377 14.3879 15.9377 14.1665 15.9377H14.0627H7.61737C7.09964 15.9377 6.67987 15.518 6.67987 15.0002C6.67987 14.4824 7.09964 14.0627 7.61737 14.0627H14.0627C14.4068 14.0627 14.4825 14.0627 15.0002 14.0627C15.5179 14.0627 15.2928 14.0627 15.5207 14.0627H15.9377H22.383C22.9007 14.0627 23.3205 14.4825 23.3205 15.0002Z" fill="currentColor"/>
</svg>
