<svg viewBox="0 0 20 20" fill="none" xmlns="http://www.w3.org/2000/svg">
<path d="M4 20H16C17.0605 19.9989 18.0773 19.5771 18.8272 18.8272C19.5771 18.0773 19.9989 17.0605 20 16V6C19.9989 4.93948 19.5771 3.92271 18.8272 3.1728C18.0773 2.4229 17.0605 2.00111 16 2H15V1C15 0.734784 14.8946 0.48043 14.7071 0.292893C14.5196 0.105357 14.2652 0 14 0C13.7348 0 13.4804 0.105357 13.2929 0.292893C13.1054 0.48043 13 0.734784 13 1V2H7V1C7 0.734784 6.89464 0.48043 6.70711 0.292893C6.51957 0.105357 6.26522 0 6 0C5.73478 0 5.48043 0.105357 5.29289 0.292893C5.10536 0.48043 5 0.734784 5 1V2H4C2.9395 2.00119 1.92278 2.423 1.17289 3.17289C0.423001 3.92278 0.00119105 4.9395 0 6V16C0.00119105 17.0605 0.423001 18.0772 1.17289 18.8271C1.92278 19.577 2.9395 19.9988 4 20ZM2 9H18V16C17.9994 16.5302 17.7885 17.0386 17.4135 17.4135C17.0386 17.7885 16.5302 17.9994 16 18H4C3.46973 17.9995 2.96133 17.7886 2.58637 17.4136C2.21141 17.0387 2.00053 16.5303 2 16V9Z" fill="currentColor"/>
</svg>
