<svg viewBox="0 0 16 20" fill="none" xmlns="http://www.w3.org/2000/svg">
<path fill-rule="evenodd" clip-rule="evenodd" d="M6.111 0C5.375 0 4.778 0.597 4.778 1.333C4.778 1.42068 4.76071 1.50749 4.72713 1.58848C4.69355 1.66947 4.64433 1.74304 4.58229 1.80499C4.52024 1.86694 4.4466 1.91605 4.36556 1.94951C4.28452 1.98298 4.19768 2.00013 4.11 2H1C0.734784 2 0.48043 2.10536 0.292893 2.29289C0.105357 2.48043 0 2.73478 0 3C0 3.26522 0.105357 3.51957 0.292893 3.70711C0.48043 3.89464 0.734784 4 1 4H15C15.2652 4 15.5196 3.89464 15.7071 3.70711C15.8946 3.51957 16 3.26522 16 3C16 2.73478 15.8946 2.48043 15.7071 2.29289C15.5196 2.10536 15.2652 2 15 2H11.888C11.7113 1.99973 11.5419 1.92935 11.417 1.80429C11.2921 1.67923 11.222 1.50973 11.222 1.333C11.222 0.597 10.625 0 9.889 0H6.111ZM2 6C1.86164 5.99994 1.72478 6.02859 1.59807 6.08413C1.47135 6.13968 1.35754 6.22092 1.26384 6.32271C1.17013 6.4245 1.09856 6.54463 1.05367 6.67549C1.00877 6.80636 0.991516 6.94512 1.003 7.083L1.774 16.333C1.85752 17.3327 2.31364 18.2646 3.05194 18.9438C3.79023 19.623 4.7568 20 5.76 20H10.24C11.2434 20 12.2101 19.6228 12.9484 18.9434C13.6867 18.264 14.1427 17.3319 14.226 16.332L14.996 7.083C15.0075 6.94521 14.9903 6.80653 14.9454 6.67573C14.9006 6.54493 14.8291 6.42485 14.7355 6.32308C14.6419 6.2213 14.5282 6.14004 14.4016 6.08443C14.275 6.02883 14.1383 6.00008 14 6H2Z" fill="currentColor"/>
</svg>
