<svg viewBox="0 0 20 20" fill="none" xmlns="http://www.w3.org/2000/svg">
<path d="M4.48324 19.6428C4.26436 19.6428 4.04705 19.5745 3.86157 19.4404C3.69287 19.3183 3.56379 19.1493 3.49039 18.9545C3.41698 18.7596 3.40249 18.5474 3.44871 18.3444L4.73379 12.6836L0.37562 8.8617C0.218877 8.72493 0.105808 8.5451 0.0504779 8.34457C-0.00485165 8.14404 1.22096e-06 7.93167 0.0644328 7.73388C0.128469 7.5362 0.249117 7.36165 0.411419 7.23189C0.573721 7.10213 0.770539 7.02286 0.977471 7.0039L6.74383 6.48036L9.02369 1.14512C9.19173 0.753132 9.57455 0.5 9.99994 0.5C10.4253 0.5 10.8081 0.753132 10.9763 1.14422L13.256 6.48036L19.0215 7.00383C19.4461 7.04206 19.8039 7.32937 19.9354 7.73384C20.067 8.13835 19.9453 8.582 19.625 8.86166L15.2669 12.6829L16.5519 18.3435C16.6461 18.7597 16.4846 19.1901 16.1392 19.4397C15.7947 19.6893 15.3351 19.7085 14.9723 19.4904L9.99994 16.519L5.02762 19.4921C4.8595 19.5919 4.67219 19.6428 4.48324 19.6428ZM9.99994 15.239C10.1889 15.239 10.376 15.2897 10.5443 15.3896L15.237 18.1962L14.0242 12.8534C13.9817 12.6667 13.9905 12.4719 14.0498 12.2898C14.109 12.1077 14.2163 11.9449 14.3605 11.8189L18.4756 8.20995L13.0312 7.71558C12.8396 7.69843 12.6563 7.62949 12.5009 7.51613C12.3455 7.40278 12.2238 7.24929 12.149 7.0721L9.99994 2.03732L7.84831 7.07284C7.69682 7.43159 7.35969 7.67805 6.96863 7.71387L1.52353 8.20827L5.63848 11.8172C5.93321 12.0752 6.06211 12.4715 5.9748 12.8527L4.7629 18.1953L9.45555 15.3896C9.62367 15.2897 9.81098 15.239 9.99994 15.239ZM6.69978 6.58351C6.69978 6.58351 6.69978 6.58441 6.69888 6.58519L6.69978 6.58351ZM13.2985 6.58105L13.2993 6.58273C13.2993 6.58184 13.2993 6.58184 13.2984 6.58105H13.2985Z" fill="currentColor"/>
</svg>
