<svg viewBox="0 0 24 24" fill="none" xmlns="http://www.w3.org/2000/svg">
<path fill-rule="evenodd" clip-rule="evenodd" d="M23.5613 21.1105C23.4019 21.2694 23.2097 21.4726 23.0059 21.6874C22.4974 22.2271 21.8622 22.898 21.464 23.17C19.3692 24.6015 16.5666 23.9166 14.5842 23.0906C11.9691 22.001 9.12197 19.9926 6.56555 17.4358C4.00674 14.8789 1.99852 12.0309 0.908908 9.41724C0.0839076 7.43443 -0.602483 4.63131 0.82922 2.53599C1.1011 2.13756 1.77352 1.50329 2.31249 0.993806C2.52811 0.79065 2.72967 0.598697 2.88905 0.439838C3.172 0.158295 3.55491 0.000244141 3.95407 0.000244141C4.35323 0.000244141 4.73615 0.158295 5.01909 0.439838L8.87353 4.29315C9.15492 4.57609 9.31287 4.9589 9.31287 5.35794C9.31287 5.75698 9.15492 6.13979 8.87353 6.42273L7.82353 7.47062C7.47287 7.81872 7.24398 8.27074 7.17093 8.75941C7.09788 9.24809 7.18458 9.74728 7.41811 10.1827C8.86232 12.9085 11.0919 15.1377 13.818 16.5815C14.2533 16.8149 14.7524 16.9015 15.2409 16.8284C15.7295 16.7552 16.1813 16.5262 16.5291 16.1754L17.5765 15.1275C17.8595 14.8459 18.2424 14.6879 18.6416 14.6879C19.0407 14.6879 19.4236 14.8459 19.7066 15.1275L23.5613 18.9814C23.8426 19.2643 24.0006 19.647 24.0006 20.046C24.0006 20.445 23.8426 20.8277 23.5613 21.1105Z" fill="currentColor"/>
</svg>
