<svg viewBox="0 0 19 23" fill="none" xmlns="http://www.w3.org/2000/svg">
<path fill-rule="evenodd" clip-rule="evenodd" d="M9.52389 0.0412598C4.35042 0.0412598 0.125968 4.25554 0.125977 9.42898C0.125988 13.0226 2.39897 16.2997 4.56207 18.7332C6.72516 21.1666 8.8922 22.7841 8.8922 22.7841C9.07309 22.9203 9.29338 22.994 9.51982 22.994C9.74625 22.994 9.96654 22.9203 10.1474 22.7841C10.1474 22.7841 12.3124 21.1666 14.4755 18.7332C16.6386 16.2997 18.9116 13.0226 18.9116 9.42898C18.9116 4.25554 14.6974 0.0412598 9.52389 0.0412598ZM9.51982 5.25983C10.6266 5.25983 11.6881 5.69951 12.4707 6.48214C13.2534 7.26477 13.693 8.32625 13.693 9.43306C13.693 10.5399 13.2534 11.6013 12.4707 12.384C11.6881 13.1666 10.6266 13.6063 9.51982 13.6063C8.41301 13.6063 7.35153 13.1666 6.5689 12.384C5.78627 11.6013 5.34659 10.5399 5.34659 9.43306C5.34659 8.32625 5.78627 7.26477 6.5689 6.48214C7.35153 5.69951 8.41301 5.25983 9.51982 5.25983Z" fill="currentColor"/>
</svg>
