<svg viewBox="0 0 21 21" fill="none" xmlns="http://www.w3.org/2000/svg">
<path d="M20.7872 19.9458L16.1381 15.2966C17.565 13.6694 18.3523 11.6105 18.3523 9.42615C18.3523 7.04178 17.4237 4.80036 15.7378 3.1145C14.0519 1.42865 11.8105 0.5 9.42615 0.5C7.04178 0.5 4.80036 1.42865 3.1145 3.1145C1.42865 4.80036 0.5 7.04178 0.5 9.42615C0.5 11.8105 1.42865 14.0519 3.1145 15.7378C4.80036 17.4237 7.04178 18.3523 9.42615 18.3523C11.6105 18.3523 13.6694 17.565 15.2966 16.1381L19.9458 20.7872C20.062 20.9035 20.2142 20.9616 20.3665 20.9616C20.5188 20.9616 20.671 20.9035 20.7872 20.7872C21.0197 20.5548 21.0197 20.1782 20.7872 19.9458ZM3.95598 14.8963C2.49502 13.4351 1.69015 11.4924 1.69015 9.42615C1.69015 7.35995 2.49502 5.41723 3.95598 3.95598C5.41723 2.49502 7.35995 1.69015 9.42615 1.69015C11.4924 1.69015 13.4351 2.49502 14.8963 3.95598C16.3573 5.41723 17.1622 7.35995 17.1622 9.42615C17.1622 11.4924 16.3573 13.4351 14.8963 14.8963C13.4351 16.3573 11.4924 17.1622 9.42615 17.1622C7.35995 17.1622 5.41723 16.3573 3.95598 14.8963Z" fill="currentColor"/>
</svg>
