<svg viewBox="0 0 27 27" fill="none" xmlns="http://www.w3.org/2000/svg">
<path d="M13.5 0.84315C6.51514 0.84315 0.84375 6.51454 0.84375 13.4994C0.84375 20.4842 6.51514 26.1556 13.5 26.1556C20.4849 26.1556 26.1562 20.4842 26.1562 13.4994C26.1562 11.558 25.717 9.71835 24.9343 8.07348L23.6777 9.33007C23.4405 9.56869 23.1169 9.70323 22.7804 9.70329H22.4311C22.9284 10.8698 23.2039 12.1526 23.2039 13.4994C23.2039 18.8533 18.8539 23.2033 13.5 23.2033C8.14611 23.2033 3.79605 18.8533 3.79605 13.4994C3.79605 8.14551 8.14611 3.7954 13.5 3.7954C14.8471 3.7954 16.1302 4.07081 17.2969 4.56831V4.21893C17.2969 3.88243 17.4315 3.55892 17.6701 3.32164L18.9259 2.0651C17.281 1.28243 15.4414 0.84315 13.5 0.84315ZM21.5041 0.84315C21.3961 0.84637 21.2935 0.89084 21.2173 0.967476L18.265 3.91977C18.2256 3.95897 18.1943 4.00561 18.173 4.05694C18.1516 4.10827 18.1406 4.16329 18.1406 4.21888V6.99819L12.5697 12.5691C12.0591 13.0798 12.0591 13.9214 12.5697 14.4321C13.0804 14.9427 13.9196 14.9403 14.4303 14.4289L20.0003 8.8588H22.7804C22.836 8.8588 22.8911 8.84783 22.9424 8.82649C22.9937 8.80515 23.0403 8.77389 23.0795 8.73447L26.0318 5.78213C26.0906 5.72303 26.1305 5.64789 26.1466 5.56613C26.1626 5.48437 26.1541 5.39967 26.1222 5.32273C26.0902 5.2458 26.0361 5.18004 25.9668 5.13379C25.8975 5.08753 25.8161 5.06282 25.7327 5.06279H23.7964L24.1326 4.72665C24.6433 4.21597 24.6457 3.37677 24.1351 2.86609C23.8798 2.61075 23.5413 2.48294 23.2032 2.48294C22.8651 2.48294 22.5275 2.61081 22.2721 2.86609L21.9367 3.20145V1.26265C21.9365 1.20647 21.9251 1.1509 21.9031 1.0992C21.8812 1.0475 21.8491 1.00073 21.8088 0.961588C21.7685 0.922447 21.7208 0.891736 21.6685 0.871275C21.6162 0.850815 21.5602 0.841729 21.5041 0.84315ZM13.5 6.74774C9.77707 6.74774 6.74835 9.77648 6.74835 13.4994C6.74835 17.2223 9.77707 20.2478 13.5 20.2478C17.2229 20.2478 20.2484 17.2223 20.2484 13.4994C20.2484 12.4253 19.9908 11.4124 19.543 10.51L17.2318 12.8212C17.2718 13.0416 17.2961 13.2677 17.2961 13.4994C17.2961 15.5914 15.592 17.2954 13.5 17.2954C11.408 17.2954 9.70395 15.5914 9.70395 13.4994C9.70395 11.4074 11.408 9.70329 13.5 9.70329C13.7317 9.70329 13.9577 9.72755 14.1781 9.76757L16.4902 7.4555C15.5877 7.00684 14.5748 6.74774 13.5 6.74774Z" fill="currentColor"/>
</svg>
