<svg viewBox="0 0 17 18" fill="none" xmlns="http://www.w3.org/2000/svg">
<path fill-rule="evenodd" clip-rule="evenodd" d="M14.5231 3.35496C12.9251 1.75502 10.7998 0.873493 8.53554 0.872559C3.86998 0.872559 0.0728643 4.66957 0.070996 9.33638C0.0703555 10.8282 0.46006 12.2845 1.20082 13.5681L0 17.9543L4.48719 16.7772C5.72359 17.4517 7.11556 17.8071 8.53209 17.8075H8.53567C13.2007 17.8075 16.9982 14.0102 17 9.34316C17.001 7.08137 16.1213 4.95483 14.5231 3.35496ZM8.53554 16.378H8.5326C7.27026 16.3774 6.03218 16.0382 4.95184 15.3973L4.69508 15.2448L2.0323 15.9433L2.74301 13.3472L2.57566 13.081C1.87141 11.9609 1.49951 10.6662 1.50015 9.33689C1.50162 5.45794 4.65774 2.30214 8.53837 2.30214C10.4175 2.30275 12.184 3.03548 13.5122 4.3653C14.8405 5.69511 15.5715 7.46272 15.5709 9.34262C15.5693 13.2219 12.4134 16.378 8.53554 16.378ZM12.3946 11.1089C12.1831 11.0029 11.1433 10.4915 10.9493 10.4208C10.7556 10.3502 10.6144 10.315 10.4736 10.5267C10.3325 10.7383 9.92727 11.2148 9.80383 11.3558C9.68039 11.497 9.55716 11.5147 9.34561 11.4088C9.13409 11.303 8.45264 11.0796 7.64475 10.359C7.01606 9.79823 6.59163 9.10564 6.46819 8.89402C6.34496 8.68215 6.46712 8.57872 6.56097 8.46235C6.78992 8.17805 7.01919 7.87997 7.08967 7.73891C7.16024 7.59772 7.12491 7.4742 7.07195 7.36837C7.01919 7.26255 6.59623 6.22152 6.42002 5.79792C6.24821 5.38569 6.07398 5.44134 5.94408 5.43491C5.82085 5.42874 5.67979 5.42749 5.53873 5.42749C5.39775 5.42749 5.16859 5.48033 4.97469 5.6922C4.78086 5.90396 4.23457 6.41556 4.23457 7.45659C4.23457 8.49761 4.99241 9.50327 5.09813 9.64444C5.20382 9.78563 6.58955 11.9219 8.71111 12.8379C9.21571 13.056 9.60961 13.186 9.91686 13.2835C10.4236 13.4445 10.8845 13.4217 11.249 13.3673C11.6554 13.3065 12.5002 12.8556 12.6766 12.3616C12.8528 11.8676 12.8528 11.4442 12.7998 11.3558C12.7471 11.2677 12.606 11.2148 12.3946 11.1089Z" fill="currentColor"/>
</svg>
