<svg viewBox="0 0 24 17" fill="none" xmlns="http://www.w3.org/2000/svg">
<path d="M22.9594 3.15743C22.7002 2.19352 21.9402 1.43369 20.9764 1.17413C19.2157 0.692383 12.1728 0.692383 12.1728 0.692383C12.1728 0.692383 5.13014 0.692383 3.36945 1.15588C2.4242 1.41516 1.6457 2.19369 1.38642 3.15743C0.923065 4.91799 0.923065 8.56921 0.923065 8.56921C0.923065 8.56921 0.923065 12.2388 1.38642 13.9809C1.64595 14.9447 2.40567 15.7045 3.36959 15.9641C5.14867 16.446 12.1731 16.446 12.1731 16.446C12.1731 16.446 19.2157 16.446 20.9764 15.9825C21.9403 15.723 22.7002 14.9632 22.9597 13.9994C23.4229 12.2387 23.4229 8.5877 23.4229 8.5877C23.4229 8.5877 23.4414 4.91795 22.9594 3.15743ZM9.93044 11.9423V5.19604L15.787 8.56914L9.93044 11.9423Z" fill="currentColor"/>
</svg>
