<svg width="60" height="60" viewBox="0 0 60 60" fill="none" xmlns="http://www.w3.org/2000/svg">
<path d="M7.05527 39.0287L0.0663257 46.0176C-0.0512134 46.1297 -0.00726805 46.3323 0.15656 46.3809L8.5739 48.9378C9.76804 49.3011 10.6985 50.2316 11.0617 51.4256L13.6186 59.8429C13.6671 60.0068 13.8698 60.0507 13.9819 59.9332L23.3332 50.5818C16.4143 48.8632 10.7023 44.5497 7.05527 39.0287Z" fill="#F63B51" fill-opacity="0.54"/>
<path d="M59.9336 46.0176L52.9447 39.0287C49.3237 44.5102 43.6293 48.8523 36.6665 50.582L46.0178 59.9333C46.1299 60.0508 46.3326 60.0069 46.3811 59.8431L48.938 51.4257C49.3013 50.2316 50.2318 49.3011 51.4259 48.9379L59.8433 46.381C60.0076 46.3322 60.0509 46.1293 59.9336 46.0176Z" fill="#F63B51" fill-opacity="0.54"/>
<path d="M53.9374 23.9377C53.9374 10.7392 43.1997 0.000366211 30 0.000366211C16.8004 0.000366211 6.06274 10.7392 6.06274 23.9377C6.06274 35.8715 14.8493 45.8179 26.3216 47.5937C40.8537 49.8543 53.9374 38.5431 53.9374 23.9377ZM11.3408 29.7711C7.39306 17.1499 16.8963 4.39126 30 4.39126C44.6383 4.39126 54.3136 20.1236 47.1781 33.262C38.9405 48.3735 16.5254 46.2624 11.3408 29.7711Z" fill="#F63B51" fill-opacity="0.54"/>
<path d="M30 7.90674C21.1607 7.90674 13.9679 15.0984 13.9679 23.9376C13.9679 36.9422 28.7121 44.5261 39.2704 37.0096C41.5326 35.4038 43.3748 33.2087 44.5602 30.644C49.4857 20.0402 41.6338 7.90674 30 7.90674ZM38.0915 21.6889C37.8914 21.8375 28.1516 29.0665 28.0957 29.108C27.3922 29.6322 26.3914 29.5619 25.766 28.8994C21.2921 24.1315 21.65 24.5122 21.5427 24.3995C20.7909 23.599 20.9478 22.3042 21.8884 21.709C21.8895 21.7078 21.8907 21.7066 21.8919 21.7066C22.5903 21.2683 23.522 21.3703 24.1067 21.9937C25.0528 23.002 24.416 22.3234 27.2578 25.351C27.5641 25.1226 31.1686 22.4487 36.1275 18.7687C36.9068 18.1898 38.0083 18.3527 38.5859 19.132C39.1154 19.8426 39.1135 20.9317 38.0915 21.6889Z" fill="#F63B51" fill-opacity="0.54"/>
</svg>
