<svg width="60" height="60" viewBox="0 0 60 60" fill="none" xmlns="http://www.w3.org/2000/svg">
<path d="M55.929 44.9168C55.4817 44.9168 55.0319 45.0399 54.5918 45.2829C51.0904 47.2155 46.6026 48.7455 42.5869 49.3753C42.0018 49.467 41.32 49.5136 40.5609 49.5136C38.6011 49.5138 36.3351 49.2073 34.4992 48.6939C32.8326 48.2278 31.9347 47.693 31.6833 47.2939C32.0645 47.3155 32.7445 47.4431 33.5209 47.5886C35.0933 47.8834 37.2467 48.287 39.2532 48.287C40.2274 48.287 41.0864 48.1895 41.8067 47.9972C43.6632 47.5019 44.305 46.289 44.2868 45.319C44.2685 44.3526 43.6337 43.5367 42.743 43.3346C42.3255 43.24 41.3251 42.9183 40.0586 42.511C36.4623 41.3549 30.4436 39.4197 27.3894 39.3296C25.4693 39.2712 20.8563 39.9692 18.3465 40.3781C18.2648 40.3913 18.1865 40.403 18.1114 40.4143C17.4634 40.5112 16.7932 40.6115 16.731 41.5592C16.6269 43.1575 16.4763 45.5175 16.3199 47.9669C16.1335 50.8881 15.939 53.9368 15.8052 55.9724C15.8003 56.0489 15.8294 56.4961 16.0897 56.7742C16.2245 56.9181 16.3973 56.9943 16.5895 56.9943C16.8255 56.9943 17.0733 56.8809 17.3466 56.6478C18.6429 55.5425 19.7407 55.0798 20.6059 55.2759C22.3544 55.6727 36.8503 58.3477 41.0596 58.348C41.0601 58.348 41.0603 58.348 41.0606 58.348C41.4577 58.348 41.7524 58.3244 41.9618 58.2757C45.3115 57.4972 54.7673 51.9483 56.7183 50.0738C57.9712 48.8699 58.4389 47.4558 57.97 46.291C57.6286 45.4433 56.8467 44.9168 55.929 44.9168Z" fill="#F63B51" fill-opacity="0.54"/>
<path d="M12.4186 40.2373L3.55735 39.8007C2.70581 39.7542 1.86666 40.3889 1.65867 41.2009L1.65281 41.2242L0.0413308 55.8544C-0.0559641 56.2623 0.0202307 56.6726 0.251829 56.9833C0.488117 57.3001 0.869761 57.4913 1.29913 57.5079L1.31219 57.5083L11.1197 57.5071C11.1402 57.5078 11.1608 57.5083 11.181 57.5083C12.0297 57.5083 12.7458 56.8458 12.8109 55.9999L13.8892 41.9054C13.9215 41.4829 13.7859 41.0761 13.5072 40.7601C13.2286 40.4438 12.8417 40.2583 12.4186 40.2373ZM9.29591 52.7795C9.29591 53.9432 8.34891 54.89 7.18506 54.89C6.02154 54.89 5.07488 53.9432 5.07488 52.7795C5.07488 51.6158 6.02154 50.6688 7.18506 50.6688C8.34891 50.669 9.29591 51.6158 9.29591 52.7795Z" fill="#F63B51" fill-opacity="0.54"/>
<path d="M59.6862 2.04107C59.3295 1.62912 58.7074 1.53417 58.0513 1.80529L47.3073 6.23765C46.7324 6.47477 46.3801 6.86848 46.3149 7.34591C46.2499 7.82367 46.4844 8.29725 46.9749 8.6794L49.5357 10.6745L40.1284 24.8267L35.3789 19.6744C34.7078 18.9461 33.7756 18.575 32.819 18.6597C31.8633 18.7431 31.0083 19.2693 30.4734 20.1031L23.3642 31.189L20.4741 28.7433C19.2245 27.6866 17.3101 27.6496 16.021 28.6565L10.5882 32.9018C9.54277 33.7189 9.35723 35.2289 10.1743 36.2745C10.6482 36.8809 11.355 37.1979 12.0691 37.1979C12.5864 37.1979 13.1075 37.0316 13.5468 36.6885L18.162 33.082L21.6544 36.0374C22.3666 36.6397 23.2959 36.9068 24.2028 36.7703C25.1105 36.634 25.9196 36.1055 26.4232 35.3206L33.3333 24.5452L38.0473 29.6589C38.7132 30.3817 39.6402 30.7531 40.5914 30.6778C41.5423 30.6026 42.3997 30.0898 42.9437 29.2714L53.3369 13.6361L56.0198 15.7263C56.3525 15.9856 56.7055 16.1225 57.0405 16.1225H57.0406C57.7034 16.1225 58.1884 15.6183 58.3061 14.8066L59.9752 3.30406C60.0509 2.78393 59.9509 2.34702 59.6862 2.04107Z" fill="#F63B51" fill-opacity="0.54"/>
</svg>
