<svg width="60" height="60" viewBox="0 0 60 60" fill="none" xmlns="http://www.w3.org/2000/svg">
<path fill-rule="evenodd" clip-rule="evenodd" d="M28.5111 56.9274C25.4536 56.9274 23.1341 56.1893 19.3385 55.0296H19.1276C19.9711 53.7644 20.2874 52.1829 19.8656 50.6014L15.0157 32.3615C14.6994 31.2017 14.0668 30.1474 13.1179 29.5148C14.1723 28.8822 15.1211 28.4605 15.9646 28.1442C18.8113 26.9844 20.2874 26.3518 19.8656 22.3454C19.8656 22.0291 19.7602 21.6073 19.7602 21.1856C19.3385 18.3389 18.9167 15.1759 21.1308 12.3292C22.1852 11.064 23.9775 10.4314 25.6644 10.7477C27.2459 11.064 28.3003 12.1183 28.722 13.5944C29.7763 17.1791 30.7252 20.8693 31.6741 24.454L31.7796 25.0866L51.3901 19.815C53.7096 19.1824 56.1346 20.553 56.7672 22.9779C57.0835 24.1377 56.9781 25.2975 56.3455 26.3518C55.8183 27.4061 54.764 28.1442 53.7096 28.4605L46.7511 30.2528C47.7 30.8854 48.2271 31.7289 48.5434 32.7832C49.176 34.9973 47.9108 37.3168 45.8022 38.0549C46.6456 38.6875 47.2782 39.5309 47.5945 40.5853C47.9108 41.745 47.7 42.9048 47.0674 43.9591C46.5402 45.0134 45.5913 45.7515 44.4315 46.0678L43.2718 46.3841C44.1152 46.9112 44.7478 47.8601 45.0641 48.809C45.6967 51.234 44.2207 53.659 41.9011 54.2916L39.0544 55.0296C34.2045 56.4002 31.0415 56.9274 28.5111 56.9274Z" fill="#F63B51" fill-opacity="0.54"/>
<path fill-rule="evenodd" clip-rule="evenodd" d="M11.7473 56.6111C9.95497 56.6111 8.4789 55.4513 8.05717 53.7644L3.10182 35.5245C2.89096 34.5756 2.99639 33.5212 3.52355 32.5723C4.05072 31.7289 4.89418 31.0963 5.84308 30.8854L8.90064 30.042C9.21694 29.9365 9.53324 29.9365 9.84953 29.9365C11.6419 29.9365 13.118 31.0963 13.6451 32.6778L18.495 50.9177C19.0222 53.0264 17.8624 55.135 15.7538 55.6622L12.6962 56.5056C12.3799 56.6111 12.0636 56.6111 11.7473 56.6111Z" fill="#F63B51" fill-opacity="0.54"/>
<path fill-rule="evenodd" clip-rule="evenodd" d="M39.6871 15.1759C39.1599 15.1759 38.8436 14.8596 38.8436 14.4379V4.84346C38.8436 4.3163 39.1599 4 39.6871 4C40.1088 4 40.4251 4.3163 40.4251 4.84346V14.4379C40.4251 14.8596 40.1088 15.1759 39.6871 15.1759Z" fill="#F63B51" fill-opacity="0.54"/>
<path fill-rule="evenodd" clip-rule="evenodd" d="M44.5369 15.1759C44.4315 15.1759 44.3261 15.1759 44.2206 15.1759C43.7989 14.965 43.588 14.5433 43.7989 14.1216L47.5945 4.94891C47.8054 4.52718 48.2271 4.31632 48.6488 4.52718C49.0706 4.73805 49.2814 5.15978 49.0706 5.58151L45.275 14.7542C45.1695 14.965 44.8532 15.1759 44.5369 15.1759Z" fill="#F63B51" fill-opacity="0.54"/>
<path fill-rule="evenodd" clip-rule="evenodd" d="M34.7317 15.1759C34.4154 15.1759 34.2045 14.965 33.9937 14.7542L30.1981 5.58151C30.0926 5.15978 30.1981 4.73805 30.6198 4.52718C31.0415 4.31632 31.4633 4.52718 31.6741 4.94891L35.4697 14.1216C35.6806 14.5433 35.4697 14.965 35.048 15.1759C34.9425 15.1759 34.8371 15.1759 34.7317 15.1759Z" fill="#F63B51" fill-opacity="0.54"/>
</svg>
