<svg width="60" height="60" viewBox="0 0 60 60" fill="none" xmlns="http://www.w3.org/2000/svg">
<g clip-path="url(#clip0_2001_946)">
<path d="M31.7612 0C27.8834 0 24.6128 3.27058 24.6128 7.14842C24.6128 11.0263 27.8834 14.2968 31.7612 14.2968C35.6391 14.2968 38.7925 11.0263 38.7925 7.14842C38.7925 3.27058 35.6391 0 31.7612 0Z" fill="#F63B51" fill-opacity="0.54"/>
<path d="M39.5649 14.2969C37.6331 16.4389 34.8662 17.8125 31.7612 17.8125C28.6562 17.8125 25.7721 16.4389 23.8403 14.2969C22.1537 16.1671 21.0972 18.6171 21.0972 21.3281V23.0859C21.0972 24.0575 21.8834 24.8437 22.855 24.8437H40.5503C41.5219 24.8437 42.3081 24.0575 42.3081 23.0859V21.3281C42.3081 18.6171 41.2515 16.1671 39.5649 14.2969Z" fill="#F63B51" fill-opacity="0.54"/>
<path d="M16.9859 53.9535L8.02798 35.994C7.16302 34.2597 5.05787 33.5525 3.32151 34.4128L0.980223 35.5726C0.108467 36.0049 -0.246259 37.0644 0.188857 37.9346L10.7357 59.0283C11.1694 59.8982 12.2245 60.2444 13.0892 59.8179L15.4004 58.6729C17.1435 57.8095 17.854 55.6943 16.9859 53.9535Z" fill="#F63B51" fill-opacity="0.54"/>
<path d="M58.5621 29.0272C57.1206 27.9725 55.1167 28.1834 53.9215 29.4842L44.3121 41.2967C43.6442 41.9998 42.3785 42.4217 41.7106 42.4217H33.5191C32.5346 42.4217 31.7612 41.6484 31.7612 40.6639C31.7612 39.6794 32.5346 38.9061 33.5191 38.9061C35.8734 38.9061 38.4798 38.9061 40.5503 38.9061C42.4839 38.9061 44.0659 37.324 44.0659 35.3904C44.0659 33.4569 42.4839 31.8748 40.5503 31.8748C32.2949 31.8748 40.1694 31.8748 31.3394 31.8748C30.4633 31.8748 30.0264 31.3192 29.3355 30.7146C26.6157 28.2671 22.5446 27.088 18.4231 28.0433C16.1347 28.5737 14.5914 29.4981 13.0263 30.7378L12.9741 30.6955L10.4316 32.933L20.4235 52.9685H23.3822H40.5503C43.855 52.9685 47.0191 51.3865 48.9879 48.7498L59.3003 33.9842C60.4604 32.4372 60.144 30.1874 58.5621 29.0272Z" fill="#F63B51" fill-opacity="0.54"/>
</g>
<defs>
<clipPath id="clip0_2001_946">
<rect width="60" height="60" fill="white"/>
</clipPath>
</defs>
</svg>
