<svg width="60" height="60" viewBox="0 0 60 60" fill="none" xmlns="http://www.w3.org/2000/svg">
<path d="M35.0372 15.0092L34.6875 15C32.8528 15 31.192 15.7471 30 16.9482C28.808 15.7471 27.1472 15 25.3125 15L24.9646 15.0092C21.4801 15.1877 18.75 18.143 18.75 21.7374C18.75 24.0472 19.7681 26.2207 21.546 27.7203L28.6542 35.0546C29.0076 35.419 29.4928 35.625 30 35.625C30.5072 35.625 30.9924 35.419 31.3458 35.0546L38.454 27.7203C40.2319 26.2207 41.25 24.0472 41.25 21.7374C41.25 18.143 38.5199 15.1877 35.0372 15.0092Z" fill="#F63B51" fill-opacity="0.54"/>
<path d="M30 15C33.1066 15 35.625 12.4816 35.625 9.375C35.625 6.2684 33.1066 3.75 30 3.75C26.8934 3.75 24.375 6.2684 24.375 9.375C24.375 12.4816 26.8934 15 30 15Z" fill="#F63B51" fill-opacity="0.54"/>
<path d="M7.5 31.875H3.75V54.375H7.5C8.53558 54.375 9.375 53.5355 9.375 52.5V33.75C9.375 32.7144 8.53558 31.875 7.5 31.875Z" fill="#F63B51" fill-opacity="0.54"/>
<path d="M54.1013 34.3829C52.7472 33.5737 51.1066 33.5389 49.7205 34.2877L37.442 40.8882C37.1553 43.2003 35.2007 45.0015 32.8125 45.0015H25.275C24.7568 45.0015 24.3375 44.5823 24.3375 44.0641C24.3375 43.546 24.7568 43.1267 25.275 43.1267H32.8125C34.3634 43.1267 35.625 41.8654 35.625 40.3147C35.625 38.7934 34.4088 37.5578 32.8986 37.5112C32.3373 37.5047 23.2764 37.5025 23.2764 37.5025L20.0757 34.3023C19.7241 33.9507 19.2471 33.7531 18.75 33.7531H11.25V52.5041H14.5605L20.625 54.3752C23.1445 55.1854 25.8394 56.25 28.8254 56.25C31.5253 56.25 34.1858 55.3547 36.4819 53.5953L54.3384 41.7775C55.535 40.9573 56.25 39.6025 56.25 38.1561C56.25 36.5944 55.4471 35.1848 54.1013 34.3829Z" fill="#F63B51" fill-opacity="0.54"/>
</svg>
