<?xml version="1.0" encoding="UTF-8"?><!DOCTYPE svg PUBLIC "-//W3C//DTD SVG 1.1//EN" "http://www.w3.org/Graphics/SVG/1.1/DTD/svg11.dtd"><svg xmlns="http://www.w3.org/2000/svg" xmlns:xlink="http://www.w3.org/1999/xlink"><symbol id="arrow-vertical" viewBox="0 0 12 12"><g fill="none">
<path d="M0.292893 10.2929C-0.0976311 10.6834 -0.0976311 11.3166 0.292893 11.7071C0.683418 12.0976 1.31658 12.0976 1.70711 11.7071L0.292893 10.2929ZM12 1C12 0.447715 11.5523 -8.71014e-08 11 3.34367e-07L2 4.60808e-07C1.44772 1.23633e-07 1 0.447715 1 1C1 1.55229 1.44772 2 2 2L10 2L10 10C10 10.5523 10.4477 11 11 11C11.5523 11 12 10.5523 12 10L12 1ZM1.70711 11.7071L11.7071 1.70711L10.2929 0.292893L0.292893 10.2929L1.70711 11.7071Z" fill="currentColor"/>
</g></symbol><symbol id="arrow" viewBox="0 0 9 16"><g fill="none">
<path d="M0.292893 7.29289C-0.0976309 7.68342 -0.097631 8.31658 0.292893 8.70711L6.65685 15.0711C7.04738 15.4616 7.68054 15.4616 8.07107 15.0711C8.46159 14.6805 8.46159 14.0474 8.07107 13.6569L2.41421 8L8.07107 2.34315C8.46159 1.95262 8.46159 1.31946 8.07107 0.928933C7.68054 0.538409 7.04738 0.538409 6.65686 0.928933L0.292893 7.29289ZM2 7L1 7L1 9L2 9L2 7Z" fill="currentColor"/>
</g></symbol><symbol id="burger" viewBox="0 0 35 16"><g fill="none">
<path fill-rule="evenodd" clip-rule="evenodd" d="M0 0H35V2H0V0ZM9.03125 7H34.999V9H9.03125V7ZM35 14H0V16H35V14Z" fill="currentColor"/>
</g></symbol><symbol id="cart" viewBox="0 0 18 21"><g fill="none">
<path d="M3.68399 20.1001H14.316C16.182 20.1001 17.7 18.5821 17.7 16.7161V6.6001C17.7 6.2701 17.43 6.0001 17.1 6.0001H13.5V5.1001C13.5 2.6191 11.481 0.600098 8.99999 0.600098C6.51899 0.600098 4.49999 2.6191 4.49999 5.1001V6.0001H0.899988C0.569988 6.0001 0.299988 6.2701 0.299988 6.6001V16.7161C0.299988 18.5821 1.81799 20.1001 3.68399 20.1001ZM5.69999 5.1001C5.69999 3.2791 7.17899 1.8001 8.99999 1.8001C10.821 1.8001 12.3 3.2791 12.3 5.1001V6.0001H5.69999V5.1001ZM1.49999 7.2001H4.49999V8.7001C4.49999 9.0301 4.76999 9.3001 5.09999 9.3001C5.42999 9.3001 5.69999 9.0301 5.69999 8.7001V7.2001H12.3V8.7001C12.3 9.0301 12.57 9.3001 12.9 9.3001C13.23 9.3001 13.5 9.0301 13.5 8.7001V7.2001H16.5V16.7161C16.5 17.9191 15.519 18.9001 14.316 18.9001H3.68399C2.48099 18.9001 1.49999 17.9191 1.49999 16.7161V7.2001Z" fill="currentColor"/>
</g></symbol><symbol id="circle-arrow" viewBox="0 0 23 23"><g fill="none">
<path fill-rule="evenodd" clip-rule="evenodd" d="M19.01 3.5484C14.6213 -0.596607 7.69339 -0.398747 3.54839 3.98998C-0.596617 8.3787 -0.398756 15.3066 3.98997 19.4516C8.3787 23.5966 15.3066 23.3988 19.4516 19.0101C23.5966 14.6213 23.3988 7.6934 19.01 3.5484ZM14.7894 9.15954L14.945 14.6076C14.9573 15.0383 15.3174 15.3784 15.7481 15.3661C16.1794 15.3543 16.5195 14.9942 16.5066 14.563C16.3738 9.89298 16.3912 10.5208 16.3312 8.40092C16.3164 7.88296 16.0963 7.39241 15.7197 7.03676C15.3431 6.68111 14.8408 6.48931 14.3229 6.5041C12.2593 6.56359 8.19288 6.67973 8.19288 6.67973C7.76216 6.69203 7.42207 7.05212 7.43437 7.48284C7.44667 7.91356 7.80676 8.25366 8.23748 8.24135L13.6535 8.08668L7.17929 14.9415C6.88318 15.2551 6.89731 15.7498 7.21083 16.0459C7.52435 16.3421 8.01912 16.3279 8.31523 16.0144L14.7894 9.15954Z" fill="currentColor"/>
</g></symbol><symbol id="clock-full" viewBox="0 0 25 25"><g fill="none">
<path d="M12.5 25C19.4018 25 25 19.4018 25 12.5C25 5.5982 19.4018 0 12.5 0C5.5982 0 0 5.5982 0 12.5C0 19.4018 5.5982 25 12.5 25ZM11.6071 5.35715C11.6071 4.86606 12.0089 4.46427 12.5 4.46427C12.9911 4.46427 13.3929 4.86606 13.3929 5.35715V12.0714L17.5223 15.375C17.9063 15.683 17.9688 16.2455 17.6607 16.6295C17.4866 16.8482 17.2277 16.9643 16.9643 16.9643C16.7678 16.9643 16.5714 16.9017 16.4063 16.7678L11.942 13.1964C11.7322 13.0268 11.6072 12.7723 11.6072 12.5V5.35715H11.6071Z" fill="currentColor"/>
</g></symbol><symbol id="clock" viewBox="0 0 18 18"><g fill="none">
<path d="M12.2068 10.5894L9.69711 8.70714V4.87293C9.69711 4.48741 9.38548 4.17578 8.99996 4.17578C8.61444 4.17578 8.30281 4.48741 8.30281 4.87293V9.05575C8.30281 9.27534 8.40599 9.48241 8.58167 9.61347L11.3702 11.7049C11.4905 11.7955 11.6371 11.8445 11.7878 11.8443C12.0004 11.8443 12.2095 11.7488 12.3462 11.5647C12.5777 11.2573 12.515 10.8202 12.2068 10.5894Z" fill="currentColor"/>
<path d="M9 0C4.0371 0 0 4.0371 0 9C0 13.9629 4.0371 18 9 18C13.9629 18 18 13.9629 18 9C18 4.0371 13.9629 0 9 0ZM9 16.6057C4.80674 16.6057 1.39426 13.1933 1.39426 9C1.39426 4.80674 4.80674 1.39426 9 1.39426C13.194 1.39426 16.6057 4.80674 16.6057 9C16.6057 13.1933 13.1933 16.6057 9 16.6057Z" fill="currentColor"/>
</g></symbol><symbol id="counter-minus" viewBox="0 0 30 30"><g fill="none">
<path d="M15.0002 0.000244141C6.72921 0.000244141 0.000244141 6.72921 0.000244141 15.0002C0.000244141 23.2712 6.72921 30.0001 15.0002 30.0001C23.2712 30.0001 30.0001 23.2712 30.0001 15.0002C30.0001 6.72915 23.2712 0.000244141 15.0002 0.000244141ZM15.0002 28.1251C7.7631 28.1251 1.87524 22.2373 1.87524 15.0002C1.87524 7.7631 7.7631 1.87524 15.0002 1.87524C22.2373 1.87524 28.1251 7.76304 28.1251 15.0002C28.1251 22.2373 22.2373 28.1251 15.0002 28.1251ZM23.3205 15.0002C23.3205 15.518 22.9007 15.9377 22.383 15.9377H15.9377H15.6278C15.0002 15.9377 15.5179 15.9377 15.0002 15.9377C14.4825 15.9377 14.3879 15.9377 14.1665 15.9377H14.0627H7.61737C7.09964 15.9377 6.67987 15.518 6.67987 15.0002C6.67987 14.4824 7.09964 14.0627 7.61737 14.0627H14.0627C14.4068 14.0627 14.4825 14.0627 15.0002 14.0627C15.5179 14.0627 15.2928 14.0627 15.5207 14.0627H15.9377H22.383C22.9007 14.0627 23.3205 14.4825 23.3205 15.0002Z" fill="currentColor"/>
</g></symbol><symbol id="counter-plus" viewBox="0 0 30 30"><g fill="none">
<path d="M14.9999 0.000244141C6.72896 0.000244141 0 6.72921 0 15.0002C0 23.2712 6.72896 30.0001 14.9999 30.0001C23.2709 30.0001 29.9999 23.2712 29.9999 15.0002C29.9999 6.72915 23.2709 0.000244141 14.9999 0.000244141ZM14.9999 28.1251C7.76285 28.1251 1.875 22.2373 1.875 15.0002C1.875 7.7631 7.76285 1.87524 14.9999 1.87524C22.237 1.87524 28.1249 7.76304 28.1249 15.0002C28.1249 22.2373 22.237 28.1251 14.9999 28.1251ZM23.3203 15.0002C23.3203 15.518 22.9005 15.9377 22.3828 15.9377H15.9374V22.383C15.9374 22.9008 15.5177 23.3205 14.9999 23.3205C14.4822 23.3205 14.0624 22.9008 14.0624 22.383V15.9377H7.61713C7.09939 15.9377 6.67963 15.518 6.67963 15.0002C6.67963 14.4824 7.09939 14.0627 7.61713 14.0627H14.0624V7.61737C14.0624 7.09958 14.4822 6.67987 14.9999 6.67987C15.5177 6.67987 15.9374 7.09958 15.9374 7.61737V14.0627H22.3828C22.9005 14.0627 23.3203 14.4825 23.3203 15.0002Z" fill="currentColor"/>
</g></symbol><symbol id="date" viewBox="0 0 20 20"><g fill="none">
<path d="M4 20H16C17.0605 19.9989 18.0773 19.5771 18.8272 18.8272C19.5771 18.0773 19.9989 17.0605 20 16V6C19.9989 4.93948 19.5771 3.92271 18.8272 3.1728C18.0773 2.4229 17.0605 2.00111 16 2H15V1C15 0.734784 14.8946 0.48043 14.7071 0.292893C14.5196 0.105357 14.2652 0 14 0C13.7348 0 13.4804 0.105357 13.2929 0.292893C13.1054 0.48043 13 0.734784 13 1V2H7V1C7 0.734784 6.89464 0.48043 6.70711 0.292893C6.51957 0.105357 6.26522 0 6 0C5.73478 0 5.48043 0.105357 5.29289 0.292893C5.10536 0.48043 5 0.734784 5 1V2H4C2.9395 2.00119 1.92278 2.423 1.17289 3.17289C0.423001 3.92278 0.00119105 4.9395 0 6V16C0.00119105 17.0605 0.423001 18.0772 1.17289 18.8271C1.92278 19.577 2.9395 19.9988 4 20ZM2 9H18V16C17.9994 16.5302 17.7885 17.0386 17.4135 17.4135C17.0386 17.7885 16.5302 17.9994 16 18H4C3.46973 17.9995 2.96133 17.7886 2.58637 17.4136C2.21141 17.0387 2.00053 16.5303 2 16V9Z" fill="currentColor"/>
</g></symbol><symbol id="delete" viewBox="0 0 16 20"><g fill="none">
<path fill-rule="evenodd" clip-rule="evenodd" d="M6.111 0C5.375 0 4.778 0.597 4.778 1.333C4.778 1.42068 4.76071 1.50749 4.72713 1.58848C4.69355 1.66947 4.64433 1.74304 4.58229 1.80499C4.52024 1.86694 4.4466 1.91605 4.36556 1.94951C4.28452 1.98298 4.19768 2.00013 4.11 2H1C0.734784 2 0.48043 2.10536 0.292893 2.29289C0.105357 2.48043 0 2.73478 0 3C0 3.26522 0.105357 3.51957 0.292893 3.70711C0.48043 3.89464 0.734784 4 1 4H15C15.2652 4 15.5196 3.89464 15.7071 3.70711C15.8946 3.51957 16 3.26522 16 3C16 2.73478 15.8946 2.48043 15.7071 2.29289C15.5196 2.10536 15.2652 2 15 2H11.888C11.7113 1.99973 11.5419 1.92935 11.417 1.80429C11.2921 1.67923 11.222 1.50973 11.222 1.333C11.222 0.597 10.625 0 9.889 0H6.111ZM2 6C1.86164 5.99994 1.72478 6.02859 1.59807 6.08413C1.47135 6.13968 1.35754 6.22092 1.26384 6.32271C1.17013 6.4245 1.09856 6.54463 1.05367 6.67549C1.00877 6.80636 0.991516 6.94512 1.003 7.083L1.774 16.333C1.85752 17.3327 2.31364 18.2646 3.05194 18.9438C3.79023 19.623 4.7568 20 5.76 20H10.24C11.2434 20 12.2101 19.6228 12.9484 18.9434C13.6867 18.264 14.1427 17.3319 14.226 16.332L14.996 7.083C15.0075 6.94521 14.9903 6.80653 14.9454 6.67573C14.9006 6.54493 14.8291 6.42485 14.7355 6.32308C14.6419 6.2213 14.5282 6.14004 14.4016 6.08443C14.275 6.02883 14.1383 6.00008 14 6H2Z" fill="currentColor"/>
</g></symbol><symbol id="favourite" viewBox="0 0 20 20"><g fill="none">
<path d="M4.48324 19.6428C4.26436 19.6428 4.04705 19.5745 3.86157 19.4404C3.69287 19.3183 3.56379 19.1493 3.49039 18.9545C3.41698 18.7596 3.40249 18.5474 3.44871 18.3444L4.73379 12.6836L0.37562 8.8617C0.218877 8.72493 0.105808 8.5451 0.0504779 8.34457C-0.00485165 8.14404 1.22096e-06 7.93167 0.0644328 7.73388C0.128469 7.5362 0.249117 7.36165 0.411419 7.23189C0.573721 7.10213 0.770539 7.02286 0.977471 7.0039L6.74383 6.48036L9.02369 1.14512C9.19173 0.753132 9.57455 0.5 9.99994 0.5C10.4253 0.5 10.8081 0.753132 10.9763 1.14422L13.256 6.48036L19.0215 7.00383C19.4461 7.04206 19.8039 7.32937 19.9354 7.73384C20.067 8.13835 19.9453 8.582 19.625 8.86166L15.2669 12.6829L16.5519 18.3435C16.6461 18.7597 16.4846 19.1901 16.1392 19.4397C15.7947 19.6893 15.3351 19.7085 14.9723 19.4904L9.99994 16.519L5.02762 19.4921C4.8595 19.5919 4.67219 19.6428 4.48324 19.6428ZM9.99994 15.239C10.1889 15.239 10.376 15.2897 10.5443 15.3896L15.237 18.1962L14.0242 12.8534C13.9817 12.6667 13.9905 12.4719 14.0498 12.2898C14.109 12.1077 14.2163 11.9449 14.3605 11.8189L18.4756 8.20995L13.0312 7.71558C12.8396 7.69843 12.6563 7.62949 12.5009 7.51613C12.3455 7.40278 12.2238 7.24929 12.149 7.0721L9.99994 2.03732L7.84831 7.07284C7.69682 7.43159 7.35969 7.67805 6.96863 7.71387L1.52353 8.20827L5.63848 11.8172C5.93321 12.0752 6.06211 12.4715 5.9748 12.8527L4.7629 18.1953L9.45555 15.3896C9.62367 15.2897 9.81098 15.239 9.99994 15.239ZM6.69978 6.58351C6.69978 6.58351 6.69978 6.58441 6.69888 6.58519L6.69978 6.58351ZM13.2985 6.58105L13.2993 6.58273C13.2993 6.58184 13.2993 6.58184 13.2984 6.58105H13.2985Z" fill="currentColor"/>
</g></symbol><symbol id="mail-full" viewBox="0 0 24 18"><g fill="none">
<path d="M0.50114 1.46044C3.79505 4.25002 9.57483 9.15773 11.2736 10.688C11.5016 10.8945 11.7462 10.9995 12.0001 10.9995C12.2535 10.9995 12.4977 10.8955 12.7253 10.6899C14.4255 9.1582 20.2052 4.25002 23.4992 1.46044C23.7043 1.28709 23.7355 0.982406 23.5695 0.770484C23.1857 0.280781 22.6134 0 22.0001 0H2.00016C1.38689 0 0.814593 0.280781 0.430828 0.770531C0.264796 0.982406 0.296062 1.28709 0.50114 1.46044Z" fill="currentColor"/>
<path d="M23.71 2.97215C23.5327 2.88965 23.3242 2.91843 23.1768 3.04443C19.5239 6.14109 14.8618 10.1104 13.395 11.4321C12.5717 12.1753 11.4292 12.1753 10.604 11.4311C9.0405 10.0224 3.80512 5.57175 0.823219 3.04439C0.674766 2.91839 0.465797 2.89059 0.290016 2.9721C0.113297 3.05418 0 3.23095 0 3.42576V16C0 17.103 0.896953 18 2.00002 18H22C23.103 18 24 17.103 24 16V3.42576C24 3.23095 23.8867 3.05371 23.71 2.97215Z" fill="currentColor"/>
</g></symbol><symbol id="mail" viewBox="0 0 18 13"><g fill="none">
<path d="M16.418 0H1.58203C0.711492 0 0 0.708363 0 1.58203V11.0742C0 11.9482 0.711949 12.6562 1.58203 12.6562H16.418C17.2885 12.6562 18 11.9479 18 11.0742V1.58203C18 0.708152 17.2882 0 16.418 0ZM16.175 1.05469L9.40866 7.84315C9.2025 8.04994 8.79761 8.05008 8.59134 7.84315L1.82496 1.05469H16.175ZM1.05469 10.8803V1.77592L5.59213 6.32812L1.05469 10.8803ZM1.82496 11.6016L6.3367 7.07512L7.84438 8.58772C8.46221 9.20756 9.53803 9.20732 10.1557 8.58772L11.6633 7.07516L16.175 11.6016H1.82496ZM16.9453 10.8803L12.4079 6.32812L16.9453 1.77592V10.8803Z" fill="currentColor"/>
</g></symbol><symbol id="phone-full" viewBox="0 0 24 24"><g fill="none">
<path fill-rule="evenodd" clip-rule="evenodd" d="M23.5613 21.1105C23.4019 21.2694 23.2097 21.4726 23.0059 21.6874C22.4974 22.2271 21.8622 22.898 21.464 23.17C19.3692 24.6015 16.5666 23.9166 14.5842 23.0906C11.9691 22.001 9.12197 19.9926 6.56555 17.4358C4.00674 14.8789 1.99852 12.0309 0.908908 9.41724C0.0839076 7.43443 -0.602483 4.63131 0.82922 2.53599C1.1011 2.13756 1.77352 1.50329 2.31249 0.993806C2.52811 0.79065 2.72967 0.598697 2.88905 0.439838C3.172 0.158295 3.55491 0.000244141 3.95407 0.000244141C4.35323 0.000244141 4.73615 0.158295 5.01909 0.439838L8.87353 4.29315C9.15492 4.57609 9.31287 4.9589 9.31287 5.35794C9.31287 5.75698 9.15492 6.13979 8.87353 6.42273L7.82353 7.47062C7.47287 7.81872 7.24398 8.27074 7.17093 8.75941C7.09788 9.24809 7.18458 9.74728 7.41811 10.1827C8.86232 12.9085 11.0919 15.1377 13.818 16.5815C14.2533 16.8149 14.7524 16.9015 15.2409 16.8284C15.7295 16.7552 16.1813 16.5262 16.5291 16.1754L17.5765 15.1275C17.8595 14.8459 18.2424 14.6879 18.6416 14.6879C19.0407 14.6879 19.4236 14.8459 19.7066 15.1275L23.5613 18.9814C23.8426 19.2643 24.0006 19.647 24.0006 20.046C24.0006 20.445 23.8426 20.8277 23.5613 21.1105Z" fill="currentColor"/>
</g></symbol><symbol id="pin" viewBox="0 0 19 23"><g fill="none">
<path fill-rule="evenodd" clip-rule="evenodd" d="M9.52389 0.0412598C4.35042 0.0412598 0.125968 4.25554 0.125977 9.42898C0.125988 13.0226 2.39897 16.2997 4.56207 18.7332C6.72516 21.1666 8.8922 22.7841 8.8922 22.7841C9.07309 22.9203 9.29338 22.994 9.51982 22.994C9.74625 22.994 9.96654 22.9203 10.1474 22.7841C10.1474 22.7841 12.3124 21.1666 14.4755 18.7332C16.6386 16.2997 18.9116 13.0226 18.9116 9.42898C18.9116 4.25554 14.6974 0.0412598 9.52389 0.0412598ZM9.51982 5.25983C10.6266 5.25983 11.6881 5.69951 12.4707 6.48214C13.2534 7.26477 13.693 8.32625 13.693 9.43306C13.693 10.5399 13.2534 11.6013 12.4707 12.384C11.6881 13.1666 10.6266 13.6063 9.51982 13.6063C8.41301 13.6063 7.35153 13.1666 6.5689 12.384C5.78627 11.6013 5.34659 10.5399 5.34659 9.43306C5.34659 8.32625 5.78627 7.26477 6.5689 6.48214C7.35153 5.69951 8.41301 5.25983 9.51982 5.25983Z" fill="currentColor"/>
</g></symbol><symbol id="plus" viewBox="0 0 16 16"><g fill="none">
<path d="M15.0406 7.04046L8.81828 7.05928V0.959364C8.81828 0.427866 8.39042 0 7.85892 0C7.32759 0 6.89955 0.427866 6.89955 0.959364L6.91836 7.04064H0.959364C0.427866 7.04064 0 7.4685 0 8C0 8.53133 0.427866 8.95919 0.959364 8.95919H6.90896V15.0406C6.90896 15.5718 7.33683 16 7.86832 16C8.39982 16 8.82769 15.5718 8.82769 15.0406V8.95936H15.0406C15.5721 8.95936 16 8.53116 16 8C16 7.46833 15.5673 7.04046 15.0406 7.04046Z" fill="currentColor"/>
</g></symbol><symbol id="search" viewBox="0 0 21 21"><g fill="none">
<path d="M20.7872 19.9458L16.1381 15.2966C17.565 13.6694 18.3523 11.6105 18.3523 9.42615C18.3523 7.04178 17.4237 4.80036 15.7378 3.1145C14.0519 1.42865 11.8105 0.5 9.42615 0.5C7.04178 0.5 4.80036 1.42865 3.1145 3.1145C1.42865 4.80036 0.5 7.04178 0.5 9.42615C0.5 11.8105 1.42865 14.0519 3.1145 15.7378C4.80036 17.4237 7.04178 18.3523 9.42615 18.3523C11.6105 18.3523 13.6694 17.565 15.2966 16.1381L19.9458 20.7872C20.062 20.9035 20.2142 20.9616 20.3665 20.9616C20.5188 20.9616 20.671 20.9035 20.7872 20.7872C21.0197 20.5548 21.0197 20.1782 20.7872 19.9458ZM3.95598 14.8963C2.49502 13.4351 1.69015 11.4924 1.69015 9.42615C1.69015 7.35995 2.49502 5.41723 3.95598 3.95598C5.41723 2.49502 7.35995 1.69015 9.42615 1.69015C11.4924 1.69015 13.4351 2.49502 14.8963 3.95598C16.3573 5.41723 17.1622 7.35995 17.1622 9.42615C17.1622 11.4924 16.3573 13.4351 14.8963 14.8963C13.4351 16.3573 11.4924 17.1622 9.42615 17.1622C7.35995 17.1622 5.41723 16.3573 3.95598 14.8963Z" fill="currentColor"/>
</g></symbol><symbol id="target" viewBox="0 0 27 27"><g fill="none">
<path d="M13.5 0.84315C6.51514 0.84315 0.84375 6.51454 0.84375 13.4994C0.84375 20.4842 6.51514 26.1556 13.5 26.1556C20.4849 26.1556 26.1562 20.4842 26.1562 13.4994C26.1562 11.558 25.717 9.71835 24.9343 8.07348L23.6777 9.33007C23.4405 9.56869 23.1169 9.70323 22.7804 9.70329H22.4311C22.9284 10.8698 23.2039 12.1526 23.2039 13.4994C23.2039 18.8533 18.8539 23.2033 13.5 23.2033C8.14611 23.2033 3.79605 18.8533 3.79605 13.4994C3.79605 8.14551 8.14611 3.7954 13.5 3.7954C14.8471 3.7954 16.1302 4.07081 17.2969 4.56831V4.21893C17.2969 3.88243 17.4315 3.55892 17.6701 3.32164L18.9259 2.0651C17.281 1.28243 15.4414 0.84315 13.5 0.84315ZM21.5041 0.84315C21.3961 0.84637 21.2935 0.89084 21.2173 0.967476L18.265 3.91977C18.2256 3.95897 18.1943 4.00561 18.173 4.05694C18.1516 4.10827 18.1406 4.16329 18.1406 4.21888V6.99819L12.5697 12.5691C12.0591 13.0798 12.0591 13.9214 12.5697 14.4321C13.0804 14.9427 13.9196 14.9403 14.4303 14.4289L20.0003 8.8588H22.7804C22.836 8.8588 22.8911 8.84783 22.9424 8.82649C22.9937 8.80515 23.0403 8.77389 23.0795 8.73447L26.0318 5.78213C26.0906 5.72303 26.1305 5.64789 26.1466 5.56613C26.1626 5.48437 26.1541 5.39967 26.1222 5.32273C26.0902 5.2458 26.0361 5.18004 25.9668 5.13379C25.8975 5.08753 25.8161 5.06282 25.7327 5.06279H23.7964L24.1326 4.72665C24.6433 4.21597 24.6457 3.37677 24.1351 2.86609C23.8798 2.61075 23.5413 2.48294 23.2032 2.48294C22.8651 2.48294 22.5275 2.61081 22.2721 2.86609L21.9367 3.20145V1.26265C21.9365 1.20647 21.9251 1.1509 21.9031 1.0992C21.8812 1.0475 21.8491 1.00073 21.8088 0.961588C21.7685 0.922447 21.7208 0.891736 21.6685 0.871275C21.6162 0.850815 21.5602 0.841729 21.5041 0.84315ZM13.5 6.74774C9.77707 6.74774 6.74835 9.77648 6.74835 13.4994C6.74835 17.2223 9.77707 20.2478 13.5 20.2478C17.2229 20.2478 20.2484 17.2223 20.2484 13.4994C20.2484 12.4253 19.9908 11.4124 19.543 10.51L17.2318 12.8212C17.2718 13.0416 17.2961 13.2677 17.2961 13.4994C17.2961 15.5914 15.592 17.2954 13.5 17.2954C11.408 17.2954 9.70395 15.5914 9.70395 13.4994C9.70395 11.4074 11.408 9.70329 13.5 9.70329C13.7317 9.70329 13.9577 9.72755 14.1781 9.76757L16.4902 7.4555C15.5877 7.00684 14.5748 6.74774 13.5 6.74774Z" fill="currentColor"/>
</g></symbol><symbol id="tg" viewBox="0 0 20 16"><g fill="none">
<path d="M7.53355 10.5449L7.21596 15.0119C7.67035 15.0119 7.86714 14.8167 8.10314 14.5824L10.2335 12.5464L14.6478 15.7791C15.4573 16.2303 16.0277 15.9927 16.2461 15.0343L19.1437 1.45709L19.1445 1.45629C19.4012 0.259518 18.7117 -0.20847 17.9229 0.0851222L0.89132 6.60576C-0.271051 7.05694 -0.253451 7.70493 0.693725 7.99852L5.04801 9.35289L15.1622 3.02425C15.6381 2.70906 16.0709 2.88345 15.7149 3.19864L7.53355 10.5449Z" fill="currentColor"/>
</g></symbol><symbol id="vk" viewBox="0 0 24 14"><g fill="none">
<path d="M21.2797 5.87824C21.621 5.43705 21.8919 5.08304 22.092 4.81597C23.5331 2.89998 24.1578 1.67603 23.9663 1.14241L23.8912 1.01744C23.8413 0.942374 23.7119 0.873441 23.5038 0.811044C23.2955 0.748692 23.029 0.738729 22.7042 0.779891L19.1055 0.805274C19.0223 0.796984 18.9383 0.798922 18.8555 0.811044C18.7722 0.823713 18.7182 0.836426 18.693 0.848554C18.6679 0.861268 18.6472 0.871457 18.6307 0.879752L18.5807 0.917262C18.5391 0.942104 18.4933 0.985971 18.4434 1.04864C18.3934 1.11126 18.3514 1.18385 18.3184 1.26743C17.9268 2.27533 17.4812 3.21264 16.9813 4.07902C16.673 4.59555 16.3897 5.04364 16.1318 5.42217C15.8735 5.80155 15.6569 6.08053 15.4819 6.25929C15.307 6.43837 15.1486 6.58237 15.0071 6.6903C14.8653 6.799 14.7571 6.84453 14.6824 6.82798C14.6113 6.81249 14.5404 6.79574 14.4699 6.77776C14.3532 6.70301 14.2594 6.60117 14.1888 6.47177C14.1179 6.34297 14.0702 6.18039 14.045 5.9845C14.0202 5.78888 14.0053 5.62004 14.0014 5.47821C13.997 5.33669 13.9992 5.13692 14.0078 4.87836C14.0161 4.62007 14.0202 4.44546 14.0202 4.35358C14.0202 4.03736 14.0265 3.69359 14.039 3.32278C14.0514 2.95223 14.0619 2.65837 14.0702 2.44174C14.0785 2.22543 14.0826 1.99613 14.0826 1.75443C14.0826 1.51328 14.0679 1.32343 14.0386 1.18578C14.0092 1.04826 13.9652 0.914247 13.9076 0.785977C13.8491 0.657126 13.7638 0.556949 13.6512 0.486348C13.5387 0.41543 13.3993 0.359435 13.2327 0.317462C12.7909 0.217285 12.2286 0.16377 11.5458 0.154978C9.99621 0.138973 9.00071 0.238835 8.55924 0.455149C8.38431 0.547031 8.22593 0.671734 8.08441 0.830115C7.93433 1.01361 7.91363 1.11374 8.02206 1.12974C8.522 1.20481 8.87578 1.38415 9.08407 1.66724L9.15913 1.81705C9.21733 1.92575 9.27558 2.11727 9.33406 2.39206C9.39231 2.66689 9.42982 2.97094 9.44663 3.30425C9.48829 3.91234 9.48829 4.43275 9.44663 4.86623C9.40498 5.29967 9.36553 5.63686 9.32802 5.87802C9.29046 6.11971 9.2342 6.31533 9.1594 6.46515C9.08434 6.6155 9.03443 6.70711 9.00932 6.74048C8.9842 6.77357 8.96351 6.79453 8.94696 6.80287C8.83929 6.84423 8.7249 6.86537 8.60955 6.86522C8.49283 6.86522 8.35127 6.8067 8.18464 6.68998C8.01796 6.57384 7.84497 6.41325 7.66617 6.20907C7.48682 6.0052 7.28512 5.71963 7.05996 5.35292C6.83508 4.98679 6.60164 4.55331 6.36021 4.05364L6.16044 3.69107C6.03547 3.45821 5.86465 3.11854 5.64806 2.67293C5.43148 2.22732 5.23969 1.79636 5.07333 1.37947C5.00656 1.20481 4.90665 1.07154 4.77343 0.979659L4.71108 0.942149C4.66942 0.909012 4.60265 0.873441 4.51104 0.836156C4.41852 0.798448 4.32209 0.771154 4.22354 0.754779L0.799704 0.779621C0.44985 0.779621 0.212572 0.859104 0.0875987 1.01744L0.0376453 1.09223C0.0123982 1.13416 0 1.20093 0 1.29227C0 1.38415 0.0251119 1.49646 0.0750652 1.62946C0.575004 2.80431 1.11858 3.93723 1.70572 5.02818C2.29316 6.11971 2.80334 6.99876 3.23651 7.66511C3.66968 8.332 4.11114 8.96051 4.56117 9.55206C5.0112 10.1436 5.30889 10.5224 5.45456 10.6888C5.60023 10.8558 5.71474 10.9808 5.7981 11.0638L6.11045 11.364C6.31021 11.5638 6.60407 11.8032 6.99148 12.0825C7.37885 12.3617 7.80764 12.6365 8.27864 12.9069C8.74909 13.1779 9.29704 13.3983 9.92169 13.5694C10.5464 13.7404 11.1545 13.8091 11.746 13.7755H13.183C13.4747 13.7506 13.6953 13.6593 13.8452 13.5006L13.8951 13.4383C13.9282 13.3886 13.9597 13.3114 13.9889 13.2073C14.0179 13.1033 14.0329 12.9885 14.0329 12.8638C14.0243 12.5057 14.0516 12.1823 14.114 11.8954C14.1763 11.6079 14.2472 11.3915 14.3265 11.2453C14.4056 11.0999 14.495 10.9769 14.5951 10.8767C14.6951 10.7765 14.7657 10.7166 14.8076 10.6957C14.8493 10.6752 14.8827 10.6606 14.9076 10.6518C15.1073 10.5853 15.3426 10.6499 15.6136 10.8455C15.8843 11.0417 16.1384 11.2828 16.3759 11.5703C16.6132 11.8578 16.8985 12.1803 17.2318 12.5388C17.5649 12.8969 17.8565 13.1634 18.1065 13.3383L18.3564 13.4887C18.523 13.5883 18.7394 13.6799 19.0062 13.7636C19.2727 13.8466 19.5062 13.8676 19.7059 13.8259L22.9049 13.7757C23.2214 13.7757 23.4672 13.7238 23.6422 13.6195C23.8171 13.516 23.9212 13.4007 23.9545 13.276C23.9876 13.151 23.9898 13.0101 23.9609 12.8514C23.9317 12.6933 23.9024 12.5829 23.8735 12.5205C23.8442 12.4582 23.8171 12.4058 23.792 12.3644C23.3754 11.6147 22.5799 10.694 21.4053 9.60274L21.3802 9.5779L21.3678 9.56523L21.3554 9.55305H21.3429C20.8095 9.04482 20.4723 8.70322 20.3308 8.52802C20.0726 8.1953 20.0141 7.85784 20.1559 7.51628C20.2552 7.25728 20.6299 6.71153 21.2797 5.87824Z" fill="currentColor"/>
</g></symbol><symbol id="whats" viewBox="0 0 17 18"><g fill="none">
<path fill-rule="evenodd" clip-rule="evenodd" d="M14.5231 3.35496C12.9251 1.75502 10.7998 0.873493 8.53554 0.872559C3.86998 0.872559 0.0728643 4.66957 0.070996 9.33638C0.0703555 10.8282 0.46006 12.2845 1.20082 13.5681L0 17.9543L4.48719 16.7772C5.72359 17.4517 7.11556 17.8071 8.53209 17.8075H8.53567C13.2007 17.8075 16.9982 14.0102 17 9.34316C17.001 7.08137 16.1213 4.95483 14.5231 3.35496ZM8.53554 16.378H8.5326C7.27026 16.3774 6.03218 16.0382 4.95184 15.3973L4.69508 15.2448L2.0323 15.9433L2.74301 13.3472L2.57566 13.081C1.87141 11.9609 1.49951 10.6662 1.50015 9.33689C1.50162 5.45794 4.65774 2.30214 8.53837 2.30214C10.4175 2.30275 12.184 3.03548 13.5122 4.3653C14.8405 5.69511 15.5715 7.46272 15.5709 9.34262C15.5693 13.2219 12.4134 16.378 8.53554 16.378ZM12.3946 11.1089C12.1831 11.0029 11.1433 10.4915 10.9493 10.4208C10.7556 10.3502 10.6144 10.315 10.4736 10.5267C10.3325 10.7383 9.92727 11.2148 9.80383 11.3558C9.68039 11.497 9.55716 11.5147 9.34561 11.4088C9.13409 11.303 8.45264 11.0796 7.64475 10.359C7.01606 9.79823 6.59163 9.10564 6.46819 8.89402C6.34496 8.68215 6.46712 8.57872 6.56097 8.46235C6.78992 8.17805 7.01919 7.87997 7.08967 7.73891C7.16024 7.59772 7.12491 7.4742 7.07195 7.36837C7.01919 7.26255 6.59623 6.22152 6.42002 5.79792C6.24821 5.38569 6.07398 5.44134 5.94408 5.43491C5.82085 5.42874 5.67979 5.42749 5.53873 5.42749C5.39775 5.42749 5.16859 5.48033 4.97469 5.6922C4.78086 5.90396 4.23457 6.41556 4.23457 7.45659C4.23457 8.49761 4.99241 9.50327 5.09813 9.64444C5.20382 9.78563 6.58955 11.9219 8.71111 12.8379C9.21571 13.056 9.60961 13.186 9.91686 13.2835C10.4236 13.4445 10.8845 13.4217 11.249 13.3673C11.6554 13.3065 12.5002 12.8556 12.6766 12.3616C12.8528 11.8676 12.8528 11.4442 12.7998 11.3558C12.7471 11.2677 12.606 11.2148 12.3946 11.1089Z" fill="currentColor"/>
</g></symbol><symbol id="ytb" viewBox="0 0 24 17"><g fill="none">
<path d="M22.9594 3.15743C22.7002 2.19352 21.9402 1.43369 20.9764 1.17413C19.2157 0.692383 12.1728 0.692383 12.1728 0.692383C12.1728 0.692383 5.13014 0.692383 3.36945 1.15588C2.4242 1.41516 1.6457 2.19369 1.38642 3.15743C0.923065 4.91799 0.923065 8.56921 0.923065 8.56921C0.923065 8.56921 0.923065 12.2388 1.38642 13.9809C1.64595 14.9447 2.40567 15.7045 3.36959 15.9641C5.14867 16.446 12.1731 16.446 12.1731 16.446C12.1731 16.446 19.2157 16.446 20.9764 15.9825C21.9403 15.723 22.7002 14.9632 22.9597 13.9994C23.4229 12.2387 23.4229 8.5877 23.4229 8.5877C23.4229 8.5877 23.4414 4.91795 22.9594 3.15743ZM9.93044 11.9423V5.19604L15.787 8.56914L9.93044 11.9423Z" fill="currentColor"/>
</g></symbol></svg>